<svg width="1400" height="264" viewBox="0 0 1400 264" fill="none" xmlns="http://www.w3.org/2000/svg">
<mask id="mask0_1_516" style="mask-type:alpha" maskUnits="userSpaceOnUse" x="0" y="0" width="1400" height="264">
<rect width="1400" height="264" rx="31" fill="#020408"/>
</mask>
<g mask="url(#mask0_1_516)">
<rect opacity="0.11" width="1400" height="264" rx="20" fill="url(#paint0_linear_1_516)"/>
<rect opacity="0.11" y="3.99978" width="321.273" height="138.767" rx="16" transform="matrix(0.866041 0.499972 -0.866041 0.499972 1303.57 -49)" stroke="#363F4F" stroke-width="8"/>
<rect opacity="0.11" y="3.99978" width="321.273" height="138.767" rx="16" transform="matrix(0.866041 0.499972 -0.866041 0.499972 923.571 -177)" stroke="#363F4F" stroke-width="8"/>
<g filter="url(#filter0_f_1_516)">
<rect x="-81" y="-68.7217" width="319" height="136.966" rx="22" fill="#7C87A0"/>
</g>
<g filter="url(#filter1_f_1_516)">
<rect x="1344" y="92.0233" width="212" height="63.36" rx="11.0451" fill="#7B8DB2"/>
</g>
<g filter="url(#filter2_f_1_516)">
<rect x="-110" y="216.951" width="319" height="136.966" rx="22" fill="#7B8DB2"/>
</g>
<rect opacity="0.11" width="341.967" height="284.973" rx="20" transform="matrix(0.866041 0.499972 -0.866041 0.499972 1163.8 28)" fill="url(#paint1_linear_1_516)"/>
<rect width="184.982" height="29.9971" rx="14.9986" transform="matrix(0.866041 0.499972 -0.866041 0.499972 1158.6 56.9956)" fill="#FFC615"/>
<rect width="79.9923" height="29.9971" rx="14.9986" transform="matrix(0.866041 0.499972 -0.866041 0.499972 1331.79 156.981)" fill="#FFC615"/>
<rect width="253.976" height="29.9971" rx="14.9986" transform="matrix(0.866041 0.499972 -0.866041 0.499972 1126.56 75.4928)" fill="#202836"/>
<rect width="279.973" height="15.9985" rx="7.99923" transform="matrix(0.866041 0.499972 -0.866041 0.499972 1078.93 102.989)" fill="#202836"/>
<rect width="175.983" height="15.9985" rx="7.99923" transform="matrix(0.866041 0.499972 -0.866041 0.499972 1057.29 115.487)" fill="#202836"/>
<rect opacity="0.11" width="341.967" height="284.973" rx="20" transform="matrix(0.866041 0.499972 -0.866041 0.499972 769.798 -108)" fill="url(#paint2_linear_1_516)"/>
<rect width="184.982" height="29.9971" rx="14.9986" transform="matrix(0.866041 0.499972 -0.866041 0.499972 764.602 -79.0044)" fill="#FFC615"/>
<rect width="79.9923" height="29.9971" rx="14.9986" transform="matrix(0.866041 0.499972 -0.866041 0.499972 937.794 20.9806)" fill="white"/>
<rect width="253.976" height="29.9971" rx="14.9986" transform="matrix(0.866041 0.499972 -0.866041 0.499972 732.562 -60.5072)" fill="#202836"/>
<rect width="279.973" height="15.9985" rx="7.99923" transform="matrix(0.866041 0.499972 -0.866041 0.499972 684.934 -33.0114)" fill="#202836"/>
<rect width="175.983" height="15.9985" rx="7.99923" transform="matrix(0.866041 0.499972 -0.866041 0.499972 663.285 -20.5132)" fill="#202836"/>
<rect opacity="0.11" width="341.967" height="284.973" rx="20" transform="matrix(0.866041 0.499972 -0.866041 0.499972 926.798 167)" fill="url(#paint3_linear_1_516)"/>
<rect width="184.982" height="29.9971" rx="14.9986" transform="matrix(0.866041 0.499972 -0.866041 0.499972 921.602 195.996)" fill="#FFC615"/>
<rect width="253.976" height="29.9971" rx="14.9986" transform="matrix(0.866041 0.499972 -0.866041 0.499972 889.562 214.493)" fill="#202836"/>
<rect width="279.973" height="15.9985" rx="7.99923" transform="matrix(0.866041 0.499972 -0.866041 0.499972 841.934 241.989)" fill="#202836"/>
<rect width="175.983" height="15.9985" rx="7.99923" transform="matrix(0.866041 0.499972 -0.866041 0.499972 820.285 254.487)" fill="#202836"/>
</g>
<defs>
<filter id="filter0_f_1_516" x="-330.2" y="-317.922" width="817.4" height="635.366" filterUnits="userSpaceOnUse" color-interpolation-filters="sRGB">
<feFlood flood-opacity="0" result="BackgroundImageFix"/>
<feBlend mode="normal" in="SourceGraphic" in2="BackgroundImageFix" result="shape"/>
<feGaussianBlur stdDeviation="124.6" result="effect1_foregroundBlur_1_516"/>
</filter>
<filter id="filter1_f_1_516" x="933.3" y="-318.677" width="1033.4" height="884.76" filterUnits="userSpaceOnUse" color-interpolation-filters="sRGB">
<feFlood flood-opacity="0" result="BackgroundImageFix"/>
<feBlend mode="normal" in="SourceGraphic" in2="BackgroundImageFix" result="shape"/>
<feGaussianBlur stdDeviation="205.35" result="effect1_foregroundBlur_1_516"/>
</filter>
<filter id="filter2_f_1_516" x="-666" y="-339.049" width="1431" height="1248.97" filterUnits="userSpaceOnUse" color-interpolation-filters="sRGB">
<feFlood flood-opacity="0" result="BackgroundImageFix"/>
<feBlend mode="normal" in="SourceGraphic" in2="BackgroundImageFix" result="shape"/>
<feGaussianBlur stdDeviation="278" result="effect1_foregroundBlur_1_516"/>
</filter>
<linearGradient id="paint0_linear_1_516" x1="686.442" y1="-2.20965e-06" x2="684.256" y2="256.652" gradientUnits="userSpaceOnUse">
<stop stop-color="#171E2B"/>
<stop offset="1" stop-color="#646F82"/>
</linearGradient>
<linearGradient id="paint1_linear_1_516" x1="167.672" y1="-2.38519e-06" x2="157.26" y2="276.67" gradientUnits="userSpaceOnUse">
<stop stop-color="#171E2B"/>
<stop offset="1" stop-color="#646F82"/>
</linearGradient>
<linearGradient id="paint2_linear_1_516" x1="167.672" y1="-2.38519e-06" x2="157.26" y2="276.67" gradientUnits="userSpaceOnUse">
<stop stop-color="#171E2B"/>
<stop offset="1" stop-color="#646F82"/>
</linearGradient>
<linearGradient id="paint3_linear_1_516" x1="167.672" y1="-2.38519e-06" x2="157.26" y2="276.67" gradientUnits="userSpaceOnUse">
<stop stop-color="#171E2B"/>
<stop offset="1" stop-color="#646F82"/>
</linearGradient>
</defs>
</svg>
