<svg width="1400" height="264" viewBox="0 0 1400 264" fill="none" xmlns="http://www.w3.org/2000/svg">
<mask id="mask0_1_554" style="mask-type:alpha" maskUnits="userSpaceOnUse" x="0" y="0" width="1400" height="264">
<rect width="1400" height="264" rx="31" fill="#020408"/>
</mask>
<g mask="url(#mask0_1_554)">
<rect opacity="0.11" width="1400" height="264" rx="20" fill="url(#paint0_linear_1_554)"/>
<g filter="url(#filter0_f_1_554)">
<rect x="-81" y="-68.7217" width="319" height="136.966" rx="22" fill="#7C87A0"/>
</g>
<g filter="url(#filter1_f_1_554)">
<rect x="1344" y="92.0232" width="212" height="63.36" rx="11.0451" fill="#7B8DB2"/>
</g>
<g filter="url(#filter2_f_1_554)">
<rect x="-110" y="216.95" width="319" height="136.966" rx="22" fill="#7B8DB2"/>
</g>
<rect opacity="0.11" width="74.2174" height="422.684" rx="37.1087" transform="matrix(0.866041 0.499972 -0.866041 0.499972 940.021 -143)" fill="url(#paint1_linear_1_554)"/>
<rect width="74.2174" height="135.554" rx="37.1087" transform="matrix(0.866041 0.499972 -0.866041 0.499972 691.355 0.557373)" fill="#202836"/>
<rect opacity="0.11" width="74.2174" height="422.684" rx="37.1087" transform="matrix(0.866041 0.499972 -0.866041 0.499972 1431.22 140.576)" fill="url(#paint2_linear_1_554)"/>
<rect width="74.2174" height="218.799" rx="37.1087" transform="matrix(0.866041 0.499972 -0.866041 0.499972 1254.65 242.512)" fill="#202836"/>
<rect opacity="0.11" width="74.2174" height="422.684" rx="37.1087" transform="matrix(0.866041 0.499972 -0.866041 0.499972 1038.26 -86.2844)" fill="url(#paint3_linear_1_554)"/>
<rect width="74.2174" height="280.213" rx="37.1087" transform="matrix(0.866041 0.499972 -0.866041 0.499972 914.876 -15.053)" fill="#202836"/>
<rect opacity="0.11" width="74.2174" height="422.684" rx="37.1087" transform="matrix(0.866041 0.499972 -0.866041 0.499972 1529.46 197.291)" fill="url(#paint4_linear_1_554)"/>
<rect opacity="0.11" width="74.2174" height="422.684" rx="37.1087" transform="matrix(0.866041 0.499972 -0.866041 0.499972 1136.5 -29.5693)" fill="url(#paint5_linear_1_554)"/>
<rect width="74.2174" height="197.943" rx="37.1087" transform="matrix(0.866041 0.499972 -0.866041 0.499972 941.868 82.7944)" fill="#202836"/>
<rect opacity="0.11" width="74.2174" height="422.684" rx="37.1087" transform="matrix(0.866041 0.499972 -0.866041 0.499972 1234.74 27.1455)" fill="url(#paint6_linear_1_554)"/>
<rect width="74.2174" height="13.7417" rx="6.87085" transform="matrix(0.866041 0.499972 -0.866041 0.499972 1191.82 51.9377)" fill="#FFC615"/>
<rect width="74.2174" height="14.974" rx="7.48702" transform="matrix(0.866041 0.499972 -0.866041 0.499972 1175.7 61.2439)" fill="#FFC615"/>
<rect width="74.2174" height="16.6352" rx="8.19242" transform="matrix(0.866041 0.499972 -0.866041 0.499972 1159.52 70.585)" fill="#FFC615"/>
<rect width="74.2174" height="314.775" rx="8.19242" transform="matrix(0.866041 0.499972 -0.866041 0.499972 1141.29 81.0969)" fill="#FFC615"/>
<rect opacity="0.11" width="74.2174" height="422.684" rx="37.1087" transform="matrix(0.866041 0.499972 -0.866041 0.499972 1332.98 83.8601)" fill="url(#paint7_linear_1_554)"/>
<rect width="74.2174" height="250.778" rx="37.1087" transform="matrix(0.866041 0.499972 -0.866041 0.499972 1184.11 169.808)" fill="#202836"/>
</g>
<defs>
<filter id="filter0_f_1_554" x="-330.2" y="-317.922" width="817.4" height="635.366" filterUnits="userSpaceOnUse" color-interpolation-filters="sRGB">
<feFlood flood-opacity="0" result="BackgroundImageFix"/>
<feBlend mode="normal" in="SourceGraphic" in2="BackgroundImageFix" result="shape"/>
<feGaussianBlur stdDeviation="124.6" result="effect1_foregroundBlur_1_554"/>
</filter>
<filter id="filter1_f_1_554" x="933.3" y="-318.677" width="1033.4" height="884.76" filterUnits="userSpaceOnUse" color-interpolation-filters="sRGB">
<feFlood flood-opacity="0" result="BackgroundImageFix"/>
<feBlend mode="normal" in="SourceGraphic" in2="BackgroundImageFix" result="shape"/>
<feGaussianBlur stdDeviation="205.35" result="effect1_foregroundBlur_1_554"/>
</filter>
<filter id="filter2_f_1_554" x="-666" y="-339.05" width="1431" height="1248.97" filterUnits="userSpaceOnUse" color-interpolation-filters="sRGB">
<feFlood flood-opacity="0" result="BackgroundImageFix"/>
<feBlend mode="normal" in="SourceGraphic" in2="BackgroundImageFix" result="shape"/>
<feGaussianBlur stdDeviation="278" result="effect1_foregroundBlur_1_554"/>
</filter>
<linearGradient id="paint0_linear_1_554" x1="686.442" y1="-2.20965e-06" x2="684.256" y2="256.652" gradientUnits="userSpaceOnUse">
<stop stop-color="#171E2B"/>
<stop offset="1" stop-color="#646F82"/>
</linearGradient>
<linearGradient id="paint1_linear_1_554" x1="36.39" y1="-3.53782e-06" x2="-62.7419" y2="385.455" gradientUnits="userSpaceOnUse">
<stop stop-color="#171E2B"/>
<stop offset="1" stop-color="#646F82"/>
</linearGradient>
<linearGradient id="paint2_linear_1_554" x1="36.39" y1="-3.53782e-06" x2="-62.7419" y2="385.455" gradientUnits="userSpaceOnUse">
<stop stop-color="#171E2B"/>
<stop offset="1" stop-color="#646F82"/>
</linearGradient>
<linearGradient id="paint3_linear_1_554" x1="36.39" y1="-3.53782e-06" x2="-62.7419" y2="385.455" gradientUnits="userSpaceOnUse">
<stop stop-color="#171E2B"/>
<stop offset="1" stop-color="#646F82"/>
</linearGradient>
<linearGradient id="paint4_linear_1_554" x1="36.39" y1="-3.53782e-06" x2="-62.7419" y2="385.455" gradientUnits="userSpaceOnUse">
<stop stop-color="#171E2B"/>
<stop offset="1" stop-color="#646F82"/>
</linearGradient>
<linearGradient id="paint5_linear_1_554" x1="36.39" y1="-3.53782e-06" x2="-62.7419" y2="385.455" gradientUnits="userSpaceOnUse">
<stop stop-color="#171E2B"/>
<stop offset="1" stop-color="#646F82"/>
</linearGradient>
<linearGradient id="paint6_linear_1_554" x1="36.39" y1="-3.53782e-06" x2="-62.7419" y2="385.455" gradientUnits="userSpaceOnUse">
<stop stop-color="#171E2B"/>
<stop offset="1" stop-color="#646F82"/>
</linearGradient>
<linearGradient id="paint7_linear_1_554" x1="36.39" y1="-3.53782e-06" x2="-62.7419" y2="385.455" gradientUnits="userSpaceOnUse">
<stop stop-color="#171E2B"/>
<stop offset="1" stop-color="#646F82"/>
</linearGradient>
</defs>
</svg>
