<svg width="1400" height="264" viewBox="0 0 1400 264" fill="none" xmlns="http://www.w3.org/2000/svg">
<mask id="mask0_1_671" style="mask-type:alpha" maskUnits="userSpaceOnUse" x="0" y="0" width="1400" height="264">
<rect width="1400" height="264" rx="31" fill="#020408"/>
</mask>
<g mask="url(#mask0_1_671)">
<rect opacity="0.11" width="1400" height="264" rx="20" fill="url(#paint0_linear_1_671)"/>
<g filter="url(#filter0_f_1_671)">
<rect x="-81" y="-68.7217" width="319" height="136.966" rx="22" fill="#7C87A0"/>
</g>
<g filter="url(#filter1_f_1_671)">
<rect x="1344" y="92.0232" width="212" height="63.36" rx="11.0451" fill="#7B8DB2"/>
</g>
<g filter="url(#filter2_f_1_671)">
<rect x="-110" y="216.95" width="319" height="136.966" rx="22" fill="#7B8DB2"/>
</g>
<rect opacity="0.11" width="164.606" height="170.706" rx="20" transform="matrix(0.866041 0.499972 -0.866041 0.499972 946.838 122)" fill="url(#paint1_linear_1_671)"/>
<rect opacity="0.11" width="164.606" height="170.706" rx="20" transform="matrix(0.866041 0.499972 -0.866041 0.499972 951.838 -63)" fill="url(#paint2_linear_1_671)"/>
<path d="M949.964 0.0433289C951.575 0.228314 953.149 0.490592 954.67 0.825489C958.984 1.7754 961.142 2.25035 961.84 4.13606C962.538 6.02177 960.431 7.23791 956.218 9.67017L952.96 11.5512C948.864 13.9158 946.816 15.098 946.816 16.5672C946.816 18.0364 948.864 19.2186 952.96 21.5832L956.218 23.4642C960.431 25.8965 962.538 27.1126 961.84 28.9983C961.142 30.884 958.984 31.359 954.67 32.3089C953.149 32.6438 951.575 32.9061 949.964 33.0911C944.303 33.7411 938.436 33.4075 933.103 32.1323C927.771 30.8572 923.213 28.6978 920.006 25.9272C916.8 23.1567 915.088 19.8993 915.088 16.5672C915.088 13.2351 916.8 9.97775 920.006 7.20718C923.213 4.43661 927.771 2.27721 933.103 1.00205C938.436 -0.273102 944.303 -0.60674 949.964 0.0433289Z" fill="#4A5467"/>
<path d="M977.673 22.2304C980.386 18.6279 980.386 14.508 977.673 10.9055C975.643 8.21064 969.591 8.21943 965.992 10.2973L957.303 15.3138C956.103 16.0065 956.103 17.1294 957.303 17.8221L965.992 22.8386C969.591 24.9165 975.643 24.9253 977.673 22.2304Z" fill="#4A5467"/>
<rect opacity="0.11" width="164.606" height="170.706" rx="20" transform="matrix(0.866041 0.499972 -0.866041 0.499972 1115.84 27)" fill="url(#paint3_linear_1_671)"/>
<rect opacity="0.11" width="164.606" height="170.706" rx="20" transform="matrix(0.866041 0.499972 -0.866041 0.499972 1193.84 163)" fill="url(#paint4_linear_1_671)"/>
<rect opacity="0.11" width="164.606" height="170.706" rx="20" transform="matrix(0.866041 0.499972 -0.866041 0.499972 1364.84 71)" fill="url(#paint5_linear_1_671)"/>
<rect opacity="0.11" width="164.606" height="170.706" rx="20" transform="matrix(0.866041 0.499972 -0.866041 0.499972 1273.84 -71)" fill="url(#paint6_linear_1_671)"/>
<rect opacity="0.11" width="164.606" height="170.706" rx="20" transform="matrix(0.866041 0.499972 -0.866041 0.499972 788.838 27)" fill="url(#paint7_linear_1_671)"/>
<rect width="125.238" height="123.581" rx="22" transform="matrix(0.866041 0.499972 -0.866041 0.499972 940.026 140.815)" fill="#FFC615"/>
<rect opacity="0.11" y="2.49986" width="120.238" height="118.581" rx="20.5" transform="matrix(0.866041 0.499972 -0.866041 0.499972 947.191 -42.9346)" stroke="#4A5467" stroke-width="5" stroke-dasharray="10 10"/>
<rect opacity="0.11" width="125.238" height="123.581" rx="22" transform="matrix(0.866041 0.499972 -0.866041 0.499972 1109.03 45.8154)" fill="url(#paint8_linear_1_671)"/>
<rect opacity="0.11" width="125.238" height="123.581" rx="22" transform="matrix(0.866041 0.499972 -0.866041 0.499972 1187.03 181.815)" fill="url(#paint9_linear_1_671)"/>
<path fill-rule="evenodd" clip-rule="evenodd" d="M1178.29 222.188C1185.16 218.218 1196.31 218.218 1203.19 222.188C1210.07 226.158 1210.07 232.595 1203.19 236.565C1196.31 240.535 1185.16 240.535 1178.29 236.565C1171.41 232.595 1171.41 226.158 1178.29 222.188Z" fill="#4A5467"/>
<path fill-rule="evenodd" clip-rule="evenodd" d="M1178.29 255.481C1185.16 251.511 1196.31 251.511 1203.19 255.481C1210.07 259.451 1210.07 265.888 1203.19 269.858C1196.31 273.828 1185.16 273.828 1178.29 269.858C1171.41 265.888 1171.41 259.451 1178.29 255.481Z" fill="#4A5467"/>
<path d="M1149.09 239.043C1154.79 235.752 1157.64 234.107 1161.18 234.107C1164.72 234.107 1167.57 235.752 1173.27 239.043C1178.97 242.333 1181.82 243.979 1181.82 246.023C1181.82 248.067 1178.97 249.713 1173.27 253.003C1167.57 256.294 1164.72 257.939 1161.18 257.939C1157.64 257.939 1154.79 256.294 1149.09 253.003C1143.39 249.713 1140.54 248.067 1140.54 246.023C1140.54 243.979 1143.39 242.333 1149.09 239.043Z" fill="#4A5467"/>
<path d="M1208.2 239.043C1213.9 235.752 1216.75 234.107 1220.29 234.107C1223.83 234.107 1226.68 235.752 1232.38 239.043C1238.08 242.333 1240.93 243.979 1240.93 246.023C1240.93 248.067 1238.08 249.713 1232.38 253.003C1226.68 256.294 1223.83 257.939 1220.29 257.939C1216.75 257.939 1213.9 256.294 1208.2 253.003C1202.5 249.713 1199.65 248.067 1199.65 246.023C1199.65 243.979 1202.5 242.333 1208.2 239.043Z" fill="#4A5467"/>
<rect opacity="0.11" y="2.49986" width="120.238" height="118.581" rx="20.5" transform="matrix(0.866041 0.499972 -0.866041 0.499972 1360.19 91.0654)" stroke="#4A5467" stroke-width="5" stroke-dasharray="10 10"/>
<rect width="125.238" height="123.581" rx="22" transform="matrix(0.866041 0.499972 -0.866041 0.499972 1267.03 -52.1846)" fill="#FFC615"/>
<rect opacity="0.11" width="125.238" height="123.581" rx="22" transform="matrix(0.866041 0.499972 -0.866041 0.499972 782.026 45.8154)" fill="url(#paint10_linear_1_671)"/>
<path fill-rule="evenodd" clip-rule="evenodd" d="M812.74 123.23C796.403 132.661 769.917 132.661 753.58 123.23C737.243 113.799 737.243 98.508 753.58 89.0767C769.917 79.6455 796.403 79.6455 812.74 89.0767C829.076 98.508 829.076 113.799 812.74 123.23ZM800.908 106.153C796.007 108.983 788.061 108.983 783.16 106.153C778.259 103.324 778.259 98.7368 783.16 95.9074C788.061 93.0781 796.007 93.0781 800.908 95.9074C805.809 98.7368 805.809 103.324 800.908 106.153ZM758.017 120.669C763.294 123.715 769.817 125.604 776.64 126.335C779.653 126.658 782.754 125.749 783.617 124.052C785.407 120.532 783.427 116.554 774.286 111.276C765.145 105.999 758.253 104.856 752.157 105.889C749.217 106.388 747.643 108.178 748.202 109.917C749.468 113.856 752.74 117.622 758.017 120.669Z" fill="#FFC615"/>
<path fill-rule="evenodd" clip-rule="evenodd" d="M1085.96 118.203C1076.04 112.476 1071.08 109.613 1071.08 106.054C1071.08 102.496 1076.04 99.6323 1085.96 93.9052C1095.88 88.178 1100.84 85.3145 1107.01 85.3145C1113.17 85.3145 1118.13 88.178 1128.05 93.9052C1137.97 99.6323 1142.93 102.496 1142.93 106.054C1142.93 109.613 1137.97 112.476 1128.05 118.203C1118.13 123.93 1113.17 126.794 1107.01 126.794C1100.84 126.794 1095.88 123.93 1085.96 118.203ZM1111.74 95.4238C1112.61 94.9205 1112.61 94.1046 1111.74 93.6014C1110.87 93.0982 1109.46 93.0982 1108.58 93.6014L1105.95 95.12L1103.32 93.6014C1102.45 93.0982 1101.04 93.0982 1100.17 93.6014C1099.29 94.1046 1099.29 94.9205 1100.17 95.4238L1102.8 96.9424L1100.17 98.461C1099.29 98.9642 1099.29 99.7801 1100.17 100.283C1101.04 100.787 1102.45 100.787 1103.32 100.283L1105.95 98.7648L1108.58 100.283C1109.46 100.787 1110.87 100.787 1111.74 100.283C1112.61 99.7802 1112.61 98.9643 1111.74 98.461L1109.11 96.9424L1111.74 95.4238ZM1120.16 103.321C1119.29 102.817 1117.87 102.817 1117 103.321C1116.13 103.824 1116.13 104.64 1117 105.143L1125.42 110.003C1126.29 110.506 1127.7 110.506 1128.58 110.003C1129.45 109.499 1129.45 108.683 1128.58 108.18L1120.16 103.321ZM1107.53 110.61C1106.66 110.107 1105.25 110.107 1104.37 110.61C1103.5 111.113 1103.5 111.929 1104.37 112.432L1112.79 117.292C1113.66 117.795 1115.08 117.795 1115.95 117.292C1116.82 116.789 1116.82 115.973 1115.95 115.47L1107.53 110.61ZM1092.4 102.409C1092.4 101.698 1091.4 101.121 1090.17 101.121C1088.94 101.121 1087.94 101.698 1087.94 102.409L1087.94 104.766L1083.86 104.766C1082.62 104.766 1081.62 105.343 1081.62 106.054C1081.62 106.766 1082.62 107.343 1083.86 107.343L1087.94 107.343L1087.94 109.699C1087.94 110.411 1088.94 110.987 1090.17 110.987C1091.4 110.987 1092.4 110.411 1092.4 109.699L1092.4 107.343L1096.48 107.343C1097.72 107.343 1098.72 106.766 1098.72 106.054C1098.72 105.343 1097.72 104.766 1096.48 104.766L1092.4 104.766V102.409ZM1101.22 114.255C1100.35 113.752 1098.93 113.752 1098.06 114.255C1097.19 114.758 1097.19 115.574 1098.06 116.077L1106.48 120.937C1107.35 121.44 1108.76 121.44 1109.64 120.937C1110.51 120.434 1110.51 119.618 1109.64 119.114L1101.22 114.255Z" fill="#4A5467"/>
<path d="M927.356 189.12C924.921 190.166 922.139 191.771 918.388 193.937C911.134 198.125 907.507 200.219 907.507 202.821C907.507 205.423 911.134 207.516 918.388 211.704L926.082 216.146C933.336 220.334 936.962 222.427 941.469 222.427C945.976 222.427 949.603 220.334 956.857 216.146C960.609 213.98 963.39 212.374 965.201 210.969C957.976 210.084 953.354 209.512 949.635 208.656L948.682 209.206C947.886 209.666 946.594 209.666 945.797 209.206C945.011 208.752 945.001 208.02 945.766 207.559C940.588 205.817 936.28 203.33 933.263 200.34C932.464 200.782 931.196 200.776 930.409 200.322C929.613 199.862 929.613 199.117 930.409 198.657L931.363 198.106C929.88 195.96 928.888 193.291 927.356 189.12Z" fill="#101622"/>
<path fill-rule="evenodd" clip-rule="evenodd" d="M955.571 191.529L955.532 191.506C955.313 191.38 955.144 191.282 954.973 191.195C952.81 190.089 949.736 189.801 947.078 190.455C946.867 190.507 946.47 190.622 946.186 190.704L946.156 190.713C945.419 190.909 944.595 190.972 943.847 190.924C943.396 190.68 942.959 190.449 942.536 190.232C939.188 188.515 936.662 187.656 933.776 187.656C932.834 187.656 931.932 187.747 931.026 187.93C931.099 188.015 931.155 188.108 931.191 188.205C932.605 192.053 933.5 194.467 934.556 196.293C935.35 195.982 936.438 196.03 937.142 196.436C937.938 196.896 937.938 197.642 937.142 198.101L936.261 198.61C939.107 201.674 943.456 204.184 948.763 205.828L949.644 205.319C950.441 204.859 951.733 204.859 952.529 205.319C953.233 205.725 953.315 206.354 952.777 206.812C955.94 207.421 960.12 207.939 966.786 208.755C966.955 208.776 967.115 208.808 967.263 208.85C967.58 208.327 967.738 207.806 967.738 207.262C967.738 205.596 966.25 204.138 963.275 202.205C962.918 201.973 962.54 201.734 962.14 201.487C962.135 201.46 962.131 201.432 962.127 201.404C962.064 200.906 962.23 200.393 962.542 200.002L962.554 199.988C962.692 199.828 962.8 199.704 962.889 199.583C964.023 198.049 963.524 196.274 961.608 195.025C961.457 194.927 961.287 194.829 961.069 194.703L955.571 191.529ZM958.784 199.082L958.796 199.065L958.81 199.046L958.824 199.028L958.836 199.013L958.843 199.005L958.858 198.987L958.872 198.97L958.88 198.961L958.891 198.949L958.9 198.938L958.908 198.93C959.059 198.755 959.103 198.703 959.136 198.659C959.651 197.961 959.425 197.155 958.554 196.587C958.495 196.549 958.42 196.505 958.144 196.346L952.686 193.195C952.41 193.035 952.333 192.992 952.268 192.958C951.284 192.456 949.888 192.325 948.68 192.622L948.661 192.627L948.604 192.642C948.555 192.656 948.495 192.672 948.424 192.692C948.3 192.728 948.157 192.769 948.012 192.81L947.997 192.815L947.98 192.82L947.958 192.827L947.942 192.831L947.913 192.839L947.881 192.848L947.868 192.852L947.842 192.859L947.81 192.867L947.778 192.875L947.751 192.882L947.747 192.882C947.651 192.907 947.554 192.93 947.455 192.952C948.002 193.267 948.571 193.595 949.163 193.937L956.857 198.379C957.456 198.725 958.031 199.056 958.58 199.375C958.643 199.276 958.711 199.178 958.784 199.082Z" fill="#101622"/>
<rect width="28.9039" height="24.1011" rx="12.0506" transform="matrix(0.866041 0.499972 -0.866041 0.499972 847.873 96)" fill="white"/>
<path d="M841.977 111.12V106.004H846.016L846.009 108.793L860.117 108.789L860.117 111.12L841.977 111.12Z" fill="#3A4456"/>
</g>
<defs>
<filter id="filter0_f_1_671" x="-330.2" y="-317.922" width="817.4" height="635.366" filterUnits="userSpaceOnUse" color-interpolation-filters="sRGB">
<feFlood flood-opacity="0" result="BackgroundImageFix"/>
<feBlend mode="normal" in="SourceGraphic" in2="BackgroundImageFix" result="shape"/>
<feGaussianBlur stdDeviation="124.6" result="effect1_foregroundBlur_1_671"/>
</filter>
<filter id="filter1_f_1_671" x="933.3" y="-318.677" width="1033.4" height="884.76" filterUnits="userSpaceOnUse" color-interpolation-filters="sRGB">
<feFlood flood-opacity="0" result="BackgroundImageFix"/>
<feBlend mode="normal" in="SourceGraphic" in2="BackgroundImageFix" result="shape"/>
<feGaussianBlur stdDeviation="205.35" result="effect1_foregroundBlur_1_671"/>
</filter>
<filter id="filter2_f_1_671" x="-666" y="-339.05" width="1431" height="1248.97" filterUnits="userSpaceOnUse" color-interpolation-filters="sRGB">
<feFlood flood-opacity="0" result="BackgroundImageFix"/>
<feBlend mode="normal" in="SourceGraphic" in2="BackgroundImageFix" result="shape"/>
<feGaussianBlur stdDeviation="278" result="effect1_foregroundBlur_1_671"/>
</filter>
<linearGradient id="paint0_linear_1_671" x1="686.442" y1="-2.20965e-06" x2="684.256" y2="256.652" gradientUnits="userSpaceOnUse">
<stop stop-color="#171E2B"/>
<stop offset="1" stop-color="#646F82"/>
</linearGradient>
<linearGradient id="paint1_linear_1_671" x1="80.7091" y1="-1.42879e-06" x2="72.9537" y2="165.604" gradientUnits="userSpaceOnUse">
<stop stop-color="#171E2B"/>
<stop offset="1" stop-color="#646F82"/>
</linearGradient>
<linearGradient id="paint2_linear_1_671" x1="80.7091" y1="-1.42879e-06" x2="72.9537" y2="165.604" gradientUnits="userSpaceOnUse">
<stop stop-color="#171E2B"/>
<stop offset="1" stop-color="#646F82"/>
</linearGradient>
<linearGradient id="paint3_linear_1_671" x1="80.7091" y1="-1.42879e-06" x2="72.9537" y2="165.604" gradientUnits="userSpaceOnUse">
<stop stop-color="#171E2B"/>
<stop offset="1" stop-color="#646F82"/>
</linearGradient>
<linearGradient id="paint4_linear_1_671" x1="80.7091" y1="-1.42879e-06" x2="72.9537" y2="165.604" gradientUnits="userSpaceOnUse">
<stop stop-color="#171E2B"/>
<stop offset="1" stop-color="#646F82"/>
</linearGradient>
<linearGradient id="paint5_linear_1_671" x1="80.7091" y1="-1.42879e-06" x2="72.9537" y2="165.604" gradientUnits="userSpaceOnUse">
<stop stop-color="#171E2B"/>
<stop offset="1" stop-color="#646F82"/>
</linearGradient>
<linearGradient id="paint6_linear_1_671" x1="80.7091" y1="-1.42879e-06" x2="72.9537" y2="165.604" gradientUnits="userSpaceOnUse">
<stop stop-color="#171E2B"/>
<stop offset="1" stop-color="#646F82"/>
</linearGradient>
<linearGradient id="paint7_linear_1_671" x1="80.7091" y1="-1.42879e-06" x2="72.9537" y2="165.604" gradientUnits="userSpaceOnUse">
<stop stop-color="#171E2B"/>
<stop offset="1" stop-color="#646F82"/>
</linearGradient>
<linearGradient id="paint8_linear_1_671" x1="61.406" y1="-1.03436e-06" x2="56.0627" y2="119.912" gradientUnits="userSpaceOnUse">
<stop stop-color="#171E2B"/>
<stop offset="1" stop-color="#646F82"/>
</linearGradient>
<linearGradient id="paint9_linear_1_671" x1="61.406" y1="-1.03436e-06" x2="56.0627" y2="119.912" gradientUnits="userSpaceOnUse">
<stop stop-color="#171E2B"/>
<stop offset="1" stop-color="#646F82"/>
</linearGradient>
<linearGradient id="paint10_linear_1_671" x1="61.406" y1="-1.03436e-06" x2="56.0627" y2="119.912" gradientUnits="userSpaceOnUse">
<stop stop-color="#171E2B"/>
<stop offset="1" stop-color="#646F82"/>
</linearGradient>
</defs>
</svg>
