<svg width="1400" height="264" viewBox="0 0 1400 264" fill="none" xmlns="http://www.w3.org/2000/svg">
<mask id="mask0_1_618" style="mask-type:alpha" maskUnits="userSpaceOnUse" x="0" y="0" width="1400" height="264">
<rect width="1400" height="264" rx="31" fill="#020408"/>
</mask>
<g mask="url(#mask0_1_618)">
<rect opacity="0.11" width="1400" height="264" rx="20" fill="url(#paint0_linear_1_618)"/>
<g filter="url(#filter0_f_1_618)">
<rect x="-81" y="-68.7217" width="319" height="136.966" rx="22" fill="#7C87A0"/>
</g>
<g filter="url(#filter1_f_1_618)">
<rect x="1344" y="92.0232" width="212" height="63.36" rx="11.0451" fill="#7B8DB2"/>
</g>
<g filter="url(#filter2_f_1_618)">
<rect x="-110" y="216.95" width="319" height="136.966" rx="22" fill="#7B8DB2"/>
</g>
<rect opacity="0.11" width="571.318" height="574.865" rx="20" transform="matrix(0.866041 0.499972 -0.866041 0.499972 1212.86 -106.938)" fill="url(#paint1_linear_1_618)"/>
<rect opacity="0.11" width="125.238" height="117.098" rx="20" transform="matrix(0.866041 0.499972 -0.866041 0.499972 851.412 117)" fill="url(#paint2_linear_1_618)"/>
<path d="M872.317 185.997C873.126 185.53 873.126 184.772 872.317 184.305L866.454 180.92C865.644 180.453 864.332 180.453 863.522 180.92L850.331 188.536L847.399 186.843L879.157 168.509C880.58 167.688 881.497 167.155 882.084 166.711C882.634 166.294 882.695 166.1 882.695 165.971C882.695 165.842 882.634 165.647 882.084 165.231C881.497 164.787 880.58 164.254 879.157 163.432C877.733 162.611 876.81 162.081 876.041 161.742C875.32 161.425 874.983 161.389 874.76 161.389C874.536 161.389 874.199 161.425 873.478 161.742C872.709 162.081 871.786 162.611 870.362 163.432L838.605 181.766L835.673 180.074L858.636 166.817C859.446 166.35 859.446 165.592 858.636 165.125L852.773 161.74C851.964 161.273 850.651 161.273 849.842 161.74L826.879 174.997L823.947 173.304L823.459 173.022C822.649 172.555 821.337 172.555 820.527 173.022C819.718 173.49 819.718 174.247 820.527 174.715L859.614 197.28C860.423 197.747 861.736 197.747 862.545 197.28C863.355 196.812 863.355 196.055 862.545 195.587L862.056 195.305L859.125 193.613L872.317 185.997Z" fill="#4A5467"/>
<rect opacity="0.11" y="3.99978" width="117.238" height="109.098" rx="16" transform="matrix(0.866041 0.499972 -0.866041 0.499972 976.876 190)" stroke="#363F4F" stroke-width="8"/>
<rect opacity="0.11" y="3.99978" width="117.238" height="109.098" rx="16" transform="matrix(0.866041 0.499972 -0.866041 0.499972 1089.88 128)" stroke="#363F4F" stroke-width="8"/>
<rect opacity="0.11" width="125.238" height="117.098" rx="20" transform="matrix(0.866041 0.499972 -0.866041 0.499972 1203.41 49)" fill="url(#paint3_linear_1_618)"/>
<rect opacity="0.11" width="125.238" height="117.098" rx="20" transform="matrix(0.866041 0.499972 -0.866041 0.499972 1084.41 -23)" fill="url(#paint4_linear_1_618)"/>
<rect width="125.238" height="117.098" rx="20" transform="matrix(0.866041 0.499972 -0.866041 0.499972 961.412 49)" fill="#FFC615"/>
<path d="M962.732 94.57L959.566 100.679L970.148 98.851L974.789 101.531L959.295 103.866L955.236 112.991L950.554 110.288L953.747 104.038L942.922 105.882L938.212 103.163L954.031 100.827L958.064 91.8748L962.732 94.57ZM973.395 119.959L970.351 121.717L956.873 113.936L959.471 112.436L972.678 112.171C974.031 112.129 975.164 112.059 976.075 111.96C976.995 111.855 977.753 111.725 978.348 111.569C978.962 111.413 979.467 111.22 979.864 110.991C980.459 110.647 980.87 110.296 981.095 109.936C981.33 109.572 981.37 109.21 981.217 108.85C981.073 108.496 980.721 108.158 980.161 107.835C979.566 107.491 978.907 107.278 978.186 107.194C977.473 107.116 976.747 107.16 976.007 107.327C975.276 107.499 974.586 107.772 973.937 108.147L970.026 105.89C971.199 105.213 972.552 104.754 974.086 104.515C975.628 104.27 977.198 104.275 978.795 104.53C980.4 104.78 981.902 105.309 983.301 106.116C984.681 106.913 985.619 107.715 986.115 108.522C986.63 109.33 986.711 110.116 986.359 110.882C986.025 111.647 985.281 112.363 984.126 113.03C983.477 113.405 982.737 113.712 981.907 113.952C981.086 114.186 980.175 114.368 979.174 114.499C978.19 114.629 977.117 114.717 975.953 114.764C974.789 114.811 973.544 114.837 972.218 114.842L964.952 115.084L973.395 119.959Z" fill="#3A4457"/>
<path fill-rule="evenodd" clip-rule="evenodd" d="M1182.14 106.781C1183.1 106.928 1183.68 107.498 1183.42 108.054C1182.42 110.258 1182.74 112.552 1184.21 114.766C1184.57 115.303 1184.1 115.905 1183.17 116.111C1182.24 116.317 1181.2 116.048 1180.84 115.511C1179.14 112.938 1178.71 110.197 1179.93 107.523C1180.19 106.967 1181.17 106.635 1182.14 106.781Z" fill="#4A5467"/>
<path fill-rule="evenodd" clip-rule="evenodd" d="M1230.49 107.326C1230.53 105.314 1228.72 103.519 1225.63 102.525C1224.76 102.245 1224.44 101.61 1224.93 101.108C1225.41 100.605 1226.51 100.425 1227.38 100.705C1231.62 102.067 1234.15 104.564 1234.1 107.348C1234.09 107.923 1233.27 108.385 1232.28 108.379C1231.28 108.373 1230.48 107.901 1230.49 107.326Z" fill="#4A5467"/>
<path fill-rule="evenodd" clip-rule="evenodd" d="M1218.41 99.1477C1218.67 98.577 1217.99 97.7459 1216.3 97.4793C1214.61 97.2137 1213.34 97.7292 1213.08 98.2899L1210.01 105.023C1209.76 105.579 1208.77 105.911 1207.81 105.765C1206.84 105.618 1206.27 105.049 1206.52 104.492L1210.62 95.5152C1210.88 94.9446 1210.19 94.1134 1208.5 93.8468C1206.81 93.5812 1205.54 94.0967 1205.29 94.6574L1200.68 104.757C1200.43 105.313 1199.44 105.645 1198.48 105.499C1197.51 105.352 1196.94 104.782 1197.19 104.226L1199.24 99.7377C1199.5 99.1671 1198.82 98.3359 1197.12 98.0693C1195.44 97.8037 1194.16 98.3192 1193.91 98.8799L1189.3 108.979C1187.35 113.268 1192.58 118.046 1201.58 119.463C1210.57 120.878 1219.14 118.281 1221.09 114.002L1224.16 107.269C1224.42 106.698 1223.74 105.867 1222.04 105.6C1220.36 105.335 1219.09 105.85 1218.83 106.411L1216.78 110.899C1216.66 111.168 1216.36 111.397 1215.94 111.536C1215.52 111.675 1215.03 111.712 1214.56 111.639C1210.44 110.99 1206.74 112.2 1205.92 114C1205.66 114.556 1204.68 114.888 1203.71 114.742C1202.75 114.595 1202.17 114.026 1202.43 113.469C1203.54 111.036 1207.37 109.548 1211.64 109.397C1212.83 109.355 1213.95 108.934 1214.25 108.266L1218.41 99.1477Z" fill="#4A5467"/>
<path d="M1079.07 50.7457V42.214L1074.56 42.214C1069.94 42.214 1067.63 42.214 1066.66 41.3399C1065.69 40.4658 1066.66 39.2549 1068.6 36.8332L1075.05 28.7562C1078.92 23.925 1080.85 21.5094 1084 21.5094C1087.15 21.5094 1089.08 23.925 1092.95 28.7562L1099.4 36.8332C1101.34 39.2549 1102.31 40.4658 1101.34 41.3399C1100.37 42.214 1098.06 42.214 1093.44 42.214L1088.93 42.214L1088.93 50.7457C1088.93 51.6291 1088.93 52.0708 1088.68 52.4193C1088.34 52.8838 1087.7 53.2529 1086.9 53.4453C1086.3 53.5896 1085.53 53.5896 1084 53.5896C1082.47 53.5896 1081.7 53.5896 1081.1 53.4453C1080.3 53.2529 1079.66 52.8838 1079.32 52.4193C1079.07 52.0708 1079.07 51.6291 1079.07 50.7457Z" fill="#4A5467"/>
</g>
<defs>
<filter id="filter0_f_1_618" x="-330.2" y="-317.922" width="817.4" height="635.366" filterUnits="userSpaceOnUse" color-interpolation-filters="sRGB">
<feFlood flood-opacity="0" result="BackgroundImageFix"/>
<feBlend mode="normal" in="SourceGraphic" in2="BackgroundImageFix" result="shape"/>
<feGaussianBlur stdDeviation="124.6" result="effect1_foregroundBlur_1_618"/>
</filter>
<filter id="filter1_f_1_618" x="933.3" y="-318.677" width="1033.4" height="884.76" filterUnits="userSpaceOnUse" color-interpolation-filters="sRGB">
<feFlood flood-opacity="0" result="BackgroundImageFix"/>
<feBlend mode="normal" in="SourceGraphic" in2="BackgroundImageFix" result="shape"/>
<feGaussianBlur stdDeviation="205.35" result="effect1_foregroundBlur_1_618"/>
</filter>
<filter id="filter2_f_1_618" x="-666" y="-339.05" width="1431" height="1248.97" filterUnits="userSpaceOnUse" color-interpolation-filters="sRGB">
<feFlood flood-opacity="0" result="BackgroundImageFix"/>
<feBlend mode="normal" in="SourceGraphic" in2="BackgroundImageFix" result="shape"/>
<feGaussianBlur stdDeviation="278" result="effect1_foregroundBlur_1_618"/>
</filter>
<linearGradient id="paint0_linear_1_618" x1="686.442" y1="-2.20965e-06" x2="684.256" y2="256.652" gradientUnits="userSpaceOnUse">
<stop stop-color="#171E2B"/>
<stop offset="1" stop-color="#646F82"/>
</linearGradient>
<linearGradient id="paint1_linear_1_618" x1="280.126" y1="-4.81156e-06" x2="254.783" y2="557.755" gradientUnits="userSpaceOnUse">
<stop stop-color="#171E2B"/>
<stop offset="1" stop-color="#646F82"/>
</linearGradient>
<linearGradient id="paint2_linear_1_618" x1="61.406" y1="-9.801e-07" x2="56.6076" y2="113.645" gradientUnits="userSpaceOnUse">
<stop stop-color="#171E2B"/>
<stop offset="1" stop-color="#646F82"/>
</linearGradient>
<linearGradient id="paint3_linear_1_618" x1="61.406" y1="-9.801e-07" x2="56.6076" y2="113.645" gradientUnits="userSpaceOnUse">
<stop stop-color="#171E2B"/>
<stop offset="1" stop-color="#646F82"/>
</linearGradient>
<linearGradient id="paint4_linear_1_618" x1="61.406" y1="-9.801e-07" x2="56.6076" y2="113.645" gradientUnits="userSpaceOnUse">
<stop stop-color="#171E2B"/>
<stop offset="1" stop-color="#646F82"/>
</linearGradient>
</defs>
</svg>
